<?xml version="1.0" encoding="utf-8"?>
<!-- Generator: Adobe Illustrator 28.0.0, SVG Export Plug-In . SVG Version: 6.00 Build 0)  -->
<svg version="1.1" id="Camada_1" xmlns="http://www.w3.org/2000/svg" xmlns:xlink="http://www.w3.org/1999/xlink" x="0px" y="0px"
	 viewBox="0 0 1000 1000" style="enable-background:new 0 0 1000 1000;" xml:space="preserve">
<style type="text/css">
	.st0{fill:#404040;}
</style>
<g>
	<g>
		<path class="st0" d="M41.55,722.88c20.76-26.64,41.52-53.28,62.28-79.92c8.29-10.64,16.64-21.24,24.86-31.93
			c2.96-3.85,4.81-4.01,8.05,0.25c13.33,17.46,28.11,33.6,48.52,42.97c20.09,9.23,40.52,10.33,60.01-1.54
			c13.47-8.2,20.55-21.6,22.97-36.53c2.13-13.19,1.61-26.81,2.22-40.24c0.08-1.71-0.04-3.42-0.04-5.13
			c0-48.89-0.03-97.79,0.02-146.68c0.01-12.73,0.34-25.47,0.44-38.2c0.06-7.28-1.7-8.85-9.1-8.85
			c-52.71,0.01-105.42-0.1-158.13,0.08c-5.79,0.02-7.59-1.79-7.48-7.49c0.3-15.59,0.18-31.2,0.06-46.8c-0.17-23-0.31-46-0.83-68.99
			c-0.12-5.51,1.47-7.23,7.04-7.22c65.84,0.13,131.68,0.04,197.52,0.01c35.2-0.02,70.41,0.09,105.61-0.2
			c4.83-0.04,7.34,1.84,9.43,5.57c7.97,14.21,16.02,28.38,24,42.59c11.43,20.35,22.83,40.71,34.24,61.07
			c12.69,22.66,25.35,45.35,38.08,68c10.97,19.52,22.05,38.97,33.03,58.48c10.05,17.84,19.98,35.76,30.14,53.53
			c1.3,2.27,3.72,3.9,5.62,5.82c1.65-1.81,3.75-3.37,4.89-5.45c17.67-32.04,35.23-64.14,52.8-96.24
			c14.3-26.13,28.55-52.28,42.84-78.41c14.74-26.96,29.56-53.87,44.22-80.87c6.15-11.33,11.41-23.18,18.2-34.1
			c3.89-6.25,9.76-11.42,15.3-16.45c3.02-2.75,5.98-4.83,6.52-9.37c1.89-15.91,11.38-26.1,25.62-32.15
			c4.37-1.85,6.39-3.82,3.96-8.46c-0.42-0.8-0.6-1.87-0.49-2.77c1.12-8.64,2.33-17.27,3.51-25.9c0.17-1.27,0.93-2.84,0.45-3.77
			c-2.45-4.76-4.71-9.41-4.22-15.07c0.09-1-2.39-2.63-3.97-3.23c-1.5-0.57-3.38-0.24-5.08-0.17c-4.25,0.17-8.66,0.54-10.89-4.15
			c-1.85-3.9,0.19-11.45,4.74-13.57c9.13-4.25,18.52-8.36,28.24-10.82c7.84-1.98,16.18-1.53,22.72,5.35
			c1.53,1.61,4.88,1.67,7.45,2.09c8.03,1.3,13.15,6.71,13.28,13.91c0.08,4.21-1.88,6.39-5.85,7c-1.12,0.17-2.28,0.15-3.42,0.18
			c-9.94,0.2-8.46,0.74-11.79,9.77c-3.22,8.76-0.85,10.47,6.96,11.81c4.78,0.82,7.24,5.13,7.24,10.37
			c-0.01,5.47-2.65,9.63-7.64,10.72c-6.92,1.51-5.88,7.64-8,11.85c-0.29,0.57,2.24,3.25,3.9,3.99
			c15.38,6.81,25.09,17.76,27.69,34.89c0.44,2.9,3.93,6.07,6.81,7.75c12.3,7.16,16.95,18.57,18.05,31.75
			c0.84,10.02,0.81,20.13,0.84,30.2c0.14,65.06,0.19,130.12,0.25,195.19c0.06,62.4,0.02,124.79,0.17,187.19
			c0.08,31.76,0.62,63.51,0.65,95.27c0.01,14.55-5.15,26.59-19.64,32.28c-4.64,1.82-9.96,2.6-14.98,2.64
			c-30.25,0.21-60.51,0.11-90.77,0.03c-16.18-0.04-30.48-13.81-30.6-29.98c-0.28-37.47-0.13-74.95-0.36-112.43
			c-0.2-32.52-0.62-65.03-1.15-97.54c-0.04-2.23-1.76-4.43-2.7-6.64c-2.02,1.73-4.75,3.06-5.97,5.24
			c-12.92,23.19-25.66,46.48-38.32,69.82c-13.74,25.33-27.31,50.77-41.03,76.11c-7.22,13.34-14.62,26.57-21.9,39.87
			c-1.88,3.43-4.34,5.49-8.55,5.47c-21.5-0.11-43-0.13-64.5-0.01c-4.16,0.02-6.74-1.71-8.7-5.17
			c-16.66-29.34-33.38-58.65-50.07-87.97c-17.16-30.16-34.27-60.36-51.54-90.45c-1.16-2.02-3.55-3.33-5.37-4.97
			c-1.06,2.42-3,4.82-3.05,7.26c-0.37,15.94,0.52,31.95-0.65,47.82c-1.54,21-3.19,42.16-7.28,62.76
			c-7.04,35.48-24.79,65.04-54.49,86.66c-19.3,14.06-40.85,23.34-63.98,28.77c-24.3,5.7-48.97,8.4-74.01,8.01
			c-25.2-0.39-49.92-3.65-74.29-10.12c-22.57-5.99-43.7-15.19-63.38-27.67c-17.62-11.17-32.96-24.98-45.94-41.35
			c-0.3-0.38-0.85-0.58-1.29-0.86C41.55,725.92,41.55,724.4,41.55,722.88z"/>
		<path class="st0" d="M880.91,178.24c2.27-9.22,4.47-16.95,14.18-19.44c-1.85-2.75-3.5-4.94-4.88-7.29
			c-6.2-10.53-4.71-20.57,4.57-28.53c3.42-2.93,4.72-5.31,2.74-9.99c-2.34-5.52-3.83-11.58-4.62-17.54
			c-1.41-10.72,5.33-17.05,16.85-12.99c14.17,4.99,22.07,13.98,23.69,29.33c14.99,1.23,21.98,11.24,23.93,24.92
			c2.53,17.72,1.67,34.77-14.24,47.33c-5.96,4.71-7.84,5.58-17.94,3.07c-1.1,1.6-2.28,3.27-3.42,4.98
			c-10.43,15.55-27.06,19.27-42.15,7.94c-6.83-5.13-13.17-5.55-20.6-4.19c-7.03,1.29-13.11-1.97-14.96-7.97
			c-1.81-5.86,1.65-13.29,7.76-15.94C862.46,167.29,872.41,167.32,880.91,178.24z"/>
		<g>
			<g>
				<path class="st0" d="M570.44,874.44c0-15.41,8.79-24.05,21.75-24.05s21.75,8.71,21.75,24.05c0,15.41-8.79,24.48-21.75,24.48
					S570.44,889.85,570.44,874.44z M601.26,874.44c0-8.5-3.46-13.39-9.07-13.39s-9.07,4.9-9.07,13.39s3.46,13.83,9.07,13.83
					S601.26,882.93,601.26,874.44z"/>
				<path class="st0" d="M630.49,874.01l-11.95-22.75h13.83l3.17,7.63c1.01,2.16,2.02,4.75,3.31,7.78h0.29
					c1.01-3.02,2.02-5.62,2.88-7.78l2.74-7.63H658l-11.95,23.33l12.67,23.47h-13.83l-3.74-8.35c-1.15-2.45-2.16-4.9-3.31-7.78h-0.29
					c-1.01,2.88-2.02,5.33-3.02,7.78l-3.46,8.35h-13.25L630.49,874.01z"/>
				<path class="st0" d="M664.62,851.25H677v46.8h-12.38V851.25z"/>
				<path class="st0" d="M685.35,875.01c0-15.7,10.8-24.63,23.33-24.63c6.91,0,11.95,2.88,15.27,6.19l-6.48,7.92
					c-2.3-2.02-4.61-3.46-8.35-3.46c-6.34,0-11.09,5.04-11.09,13.54c0,8.78,3.89,13.68,12.24,13.68c1.3,0,2.74-0.29,3.6-0.86v-6.48
					h-6.91v-10.08h17.86v22.32c-3.31,3.17-9.22,5.76-15.84,5.76C695.87,898.92,685.35,891,685.35,875.01z"/>
				<path class="st0" d="M733.88,851.25h30.24v10.37h-17.86v7.34h15.27v10.37h-15.27v8.35h18.58v10.37h-30.96V851.25z M742.81,838
					h13.54l6.05,7.92l-5.33,3.17l-7.34-5.76h-0.29l-7.34,5.76l-5.33-3.17L742.81,838z"/>
				<path class="st0" d="M773.91,851.25h12.67l10.37,20.88l4.46,10.51h0.29c-0.58-5.04-1.58-12.1-1.58-17.86v-13.54h11.81v46.8
					h-12.67l-10.37-20.95l-4.46-10.44h-0.29c0.58,5.33,1.58,12.1,1.58,17.86v13.54h-11.81V851.25z"/>
				<path class="st0" d="M822.3,851.25h12.38v46.8H822.3V851.25z"/>
				<path class="st0" d="M843.03,874.44c0-15.41,8.79-24.05,21.75-24.05s21.75,8.71,21.75,24.05c0,15.41-8.79,24.48-21.75,24.48
					S843.03,889.85,843.03,874.44z M873.85,874.44c0-8.5-3.46-13.39-9.07-13.39s-9.07,4.9-9.07,13.39s3.46,13.83,9.07,13.83
					S873.85,882.93,873.85,874.44z"/>
			</g>
		</g>
	</g>
</g>
</svg>
